<mxfile host="app.diagrams.net" modified="2021-11-18T16:45:12.737Z" agent="5.0 (Windows NT 10.0; Win64; x64) AppleWebKit/537.36 (KHTML, like Gecko) Chrome/96.0.4664.45 Safari/537.36" etag="mB-cCx24tip35SdSd8Px" version="15.8.2" type="github">
  <diagram id="C5RBs43oDa-KdzZeNtuy" name="Page-1">
    <mxGraphModel dx="2249" dy="762" grid="1" gridSize="10" guides="1" tooltips="1" connect="1" arrows="1" fold="1" page="1" pageScale="1" pageWidth="827" pageHeight="1169" math="0" shadow="0">
      <root>
        <mxCell id="WIyWlLk6GJQsqaUBKTNV-0" />
        <mxCell id="WIyWlLk6GJQsqaUBKTNV-1" parent="WIyWlLk6GJQsqaUBKTNV-0" />
        <mxCell id="zkfFHV4jXpPFQw0GAbJ--0" value="GameObject&#xa;" style="swimlane;fontStyle=2;align=center;verticalAlign=top;childLayout=stackLayout;horizontal=1;startSize=26;horizontalStack=0;resizeParent=1;resizeLast=0;collapsible=1;marginBottom=0;rounded=0;shadow=0;strokeWidth=1;" parent="WIyWlLk6GJQsqaUBKTNV-1" vertex="1">
          <mxGeometry x="10" y="10" width="380" height="670" as="geometry">
            <mxRectangle x="230" y="140" width="160" height="26" as="alternateBounds" />
          </mxGeometry>
        </mxCell>
        <mxCell id="zkfFHV4jXpPFQw0GAbJ--3" value="#sprite : Texture2D&#xa;#animationSprite : Texture2D&#xa;#deathSprite : Texture2D&#xa;#exhaustSprites : Texture2D[]&#xa;#deathSprites : Texture2D[]&#xa;&#xa;#position : Vector2&#xa;#velocity : Vector2&#xa;#offset : Vector2&#xa;#origin : Vector2&#xa;&#xa;#color : Color &#xa;&#xa;#health : int&#xa;#damage : int&#xa;#amountOfEnemies : int&#xa;#exhaustTimeElapsed : float&#xa;#deathTimeElapsed : float&#xa;-exhaustCurrentIndex : int&#xa;-deathCurrentIndex : int &#xa;&#xa;#rotation : float&#xa;#timeElapsed : float&#xa;#scale : float&#xa;#speed : float&#xa;#animationFps : float&#xa;#layerDepth : float&#xa;&#xa;#myGameWorld : GameWorld&#xa;#myRandom : Random" style="text;align=left;verticalAlign=top;spacingLeft=4;spacingRight=4;overflow=hidden;rotatable=0;points=[[0,0.5],[1,0.5]];portConstraint=eastwest;rounded=0;shadow=0;html=0;fontStyle=0" parent="zkfFHV4jXpPFQw0GAbJ--0" vertex="1">
          <mxGeometry y="26" width="380" height="454" as="geometry" />
        </mxCell>
        <mxCell id="zkfFHV4jXpPFQw0GAbJ--4" value="" style="line;html=1;strokeWidth=1;align=left;verticalAlign=middle;spacingTop=-1;spacingLeft=3;spacingRight=3;rotatable=0;labelPosition=right;points=[];portConstraint=eastwest;" parent="zkfFHV4jXpPFQw0GAbJ--0" vertex="1">
          <mxGeometry y="480" width="380" height="8" as="geometry" />
        </mxCell>
        <mxCell id="pxwjKuDdbxGbTX345M8p-4" value="+LoadContent(content : ContentManager) : void&#xa;+Update(gameTime : GameTime) : void&#xa;+Draw(gameTime : Gametime) : void&#xa;+OnCollision(obj : GameObject) : void&#xa;+Attack(gameTime : GameTime) : void" style="text;align=left;verticalAlign=top;spacingLeft=4;spacingRight=4;overflow=hidden;rotatable=0;points=[[0,0.5],[1,0.5]];portConstraint=eastwest;fontStyle=2" vertex="1" parent="zkfFHV4jXpPFQw0GAbJ--0">
          <mxGeometry y="488" width="380" height="82" as="geometry" />
        </mxCell>
        <mxCell id="zkfFHV4jXpPFQw0GAbJ--5" value="#HandleMovement(gameTime : GameTime) : void&#xa;#Animatie(gameTime : GameTime) : void&#xa;+CheckCollision(obj : GameObject) : void&#xa;+SetGameWorld(gameWorld : GameWorld) : void&#xa;+Instantiate(obj : GameObject) : void&#xa;+Destroy(obj : GameObject) : void&#xa;" style="text;align=left;verticalAlign=top;spacingLeft=4;spacingRight=4;overflow=hidden;rotatable=0;points=[[0,0.5],[1,0.5]];portConstraint=eastwest;fontStyle=0" parent="zkfFHV4jXpPFQw0GAbJ--0" vertex="1">
          <mxGeometry y="570" width="380" height="90" as="geometry" />
        </mxCell>
        <mxCell id="pxwjKuDdbxGbTX345M8p-10" value="GameWorld" style="swimlane;fontStyle=0;align=center;verticalAlign=top;childLayout=stackLayout;horizontal=1;startSize=26;horizontalStack=0;resizeParent=1;resizeParentMax=0;resizeLast=0;collapsible=1;marginBottom=0;" vertex="1" parent="WIyWlLk6GJQsqaUBKTNV-1">
          <mxGeometry x="500" y="10" width="310" height="530" as="geometry" />
        </mxCell>
        <mxCell id="pxwjKuDdbxGbTX345M8p-11" value="-myGraphics : GraphicsDeviceManager&#xa;-score : int&#xa;" style="text;strokeColor=none;fillColor=none;align=left;verticalAlign=top;spacingLeft=4;spacingRight=4;overflow=hidden;rotatable=0;points=[[0,0.5],[1,0.5]];portConstraint=eastwest;fontStyle=4" vertex="1" parent="pxwjKuDdbxGbTX345M8p-10">
          <mxGeometry y="26" width="310" height="44" as="geometry" />
        </mxCell>
        <mxCell id="pxwjKuDdbxGbTX345M8p-58" value="-screenHeight : int {readonly}&#xa;-screenWidth : int {readonly}&#xa;-listOfCurrentObjects : List&lt;GameObject&gt;{readonly}&#xa;-listOfObjectsToAdd : List&lt;GameObject&gt;{readonly}&#xa;-listOfObjectsToDestroy : List&lt;GameObject&gt;{readonly}&#xa;&#xa;-collisionTexture : Texture2D&#xa;-background : Texture2D&#xa;-menu : Texture2D&#xa;-deathscreen : Texture2D&#xa;-backgroundMusic : Song&#xa;-highscore : int&#xa;-text : SpriteFont&#xa;-highscoreFont : SpriteFont&#xa;+currentGameSate : Gamestate&#xa;-scoreColor : Color" style="text;strokeColor=none;fillColor=none;align=left;verticalAlign=top;spacingLeft=4;spacingRight=4;overflow=hidden;rotatable=0;points=[[0,0.5],[1,0.5]];portConstraint=eastwest;fontStyle=0" vertex="1" parent="pxwjKuDdbxGbTX345M8p-10">
          <mxGeometry y="70" width="310" height="240" as="geometry" />
        </mxCell>
        <mxCell id="pxwjKuDdbxGbTX345M8p-12" value="" style="line;strokeWidth=1;fillColor=none;align=left;verticalAlign=middle;spacingTop=-1;spacingLeft=3;spacingRight=3;rotatable=0;labelPosition=right;points=[];portConstraint=eastwest;" vertex="1" parent="pxwjKuDdbxGbTX345M8p-10">
          <mxGeometry y="310" width="310" height="8" as="geometry" />
        </mxCell>
        <mxCell id="pxwjKuDdbxGbTX345M8p-13" value="+ GameWorld()&#xa;#Initialize() : void&#xa;#LoadContent(): void&#xa;#Update(gameTime : GameTime) : void&#xa;#Draw(gameTime : GameTime) : void&#xa;&#xa;+Instantiate(obj : GameObject) : void&#xa;+DestroyGameObject(obj : GameObject) : void&#xa;&#xa;-UpdateGameObjects(gameTime : GameTime) : void&#xa;-MenuControls() : void&#xa;-CallInstantiate() : void&#xa;-CallDestroy() : void&#xa;-DrawCollisionBox(obj : GameObject) : void" style="text;strokeColor=none;fillColor=none;align=left;verticalAlign=top;spacingLeft=4;spacingRight=4;overflow=hidden;rotatable=0;points=[[0,0.5],[1,0.5]];portConstraint=eastwest;" vertex="1" parent="pxwjKuDdbxGbTX345M8p-10">
          <mxGeometry y="318" width="310" height="212" as="geometry" />
        </mxCell>
        <mxCell id="pxwjKuDdbxGbTX345M8p-45" value="Player" style="swimlane;fontStyle=0;align=center;verticalAlign=top;childLayout=stackLayout;horizontal=1;startSize=26;horizontalStack=0;resizeParent=1;resizeParentMax=0;resizeLast=0;collapsible=1;marginBottom=0;" vertex="1" parent="WIyWlLk6GJQsqaUBKTNV-1">
          <mxGeometry x="10" y="760" width="270" height="560" as="geometry" />
        </mxCell>
        <mxCell id="pxwjKuDdbxGbTX345M8p-46" value="-exhuastPosition : Vector2&#xa;-shootingPoint : Vector2&#xa;-timeSinceLastShot : float&#xa;-rateOfFire : float&#xa;-lowestRateOfFire : float&#xa;-subtractRateOfFire : float&#xa;&#xa;-isInvincible : bool&#xa;-timeSinceLastHit : float&#xa;-healthBars : Texture2D[]&#xa;-currentHealthBar : Texture2D&#xa;&#xa;-speedBars : Texture2D[]&#xa;-currentSpeedBar : Texture2D&#xa;-speedBar : float&#xa;&#xa;-gameOverSound : SoundEffect&#xa;-laserSound : SoundEffect&#xa;-playerHit : SoundEffect&#xa;-turboPickUp : SoundEffect&#xa;-healthPickUp : SoundEffect&#xa;-firePowerPickUp : SoundEffect&#xa;&#xa;-" style="text;strokeColor=none;fillColor=none;align=left;verticalAlign=top;spacingLeft=4;spacingRight=4;overflow=hidden;rotatable=0;points=[[0,0.5],[1,0.5]];portConstraint=eastwest;" vertex="1" parent="pxwjKuDdbxGbTX345M8p-45">
          <mxGeometry y="26" width="270" height="324" as="geometry" />
        </mxCell>
        <mxCell id="pxwjKuDdbxGbTX345M8p-47" value="" style="line;strokeWidth=1;fillColor=none;align=left;verticalAlign=middle;spacingTop=-1;spacingLeft=3;spacingRight=3;rotatable=0;labelPosition=right;points=[];portConstraint=eastwest;" vertex="1" parent="pxwjKuDdbxGbTX345M8p-45">
          <mxGeometry y="350" width="270" height="8" as="geometry" />
        </mxCell>
        <mxCell id="pxwjKuDdbxGbTX345M8p-48" value="+Player()&#xa;-LookAtMouse() : void&#xa;-HandleInput() : void&#xa;-ScreenWarp() : void&#xa;+ImpactDisable(gameTime : GameTime) : void&#xa;+UpdateHealth(gameTime : GameTime) : void&#xa;+UpdateSpeed(gameTime: GameTime) : void&#xa;+Ondeath(playerHealth : int) : void&#xa;&#xa;+LoadContent(content : ContentManager) : void&#xa;+Update(gameTime : GameTime) : void&#xa;+Draw(spriteBatch : SpriteBatch) : void&#xa;+OnColliSion(obj : GameObject) : void" style="text;strokeColor=none;fillColor=none;align=left;verticalAlign=top;spacingLeft=4;spacingRight=4;overflow=hidden;rotatable=0;points=[[0,0.5],[1,0.5]];portConstraint=eastwest;" vertex="1" parent="pxwjKuDdbxGbTX345M8p-45">
          <mxGeometry y="358" width="270" height="202" as="geometry" />
        </mxCell>
        <mxCell id="pxwjKuDdbxGbTX345M8p-49" value="Asteroid" style="swimlane;fontStyle=0;align=center;verticalAlign=top;childLayout=stackLayout;horizontal=1;startSize=26;horizontalStack=0;resizeParent=1;resizeParentMax=0;resizeLast=0;collapsible=1;marginBottom=0;" vertex="1" parent="WIyWlLk6GJQsqaUBKTNV-1">
          <mxGeometry x="290" y="760" width="270" height="178" as="geometry" />
        </mxCell>
        <mxCell id="pxwjKuDdbxGbTX345M8p-50" value="-asteroidDestruction : SoundEffect" style="text;strokeColor=none;fillColor=none;align=left;verticalAlign=top;spacingLeft=4;spacingRight=4;overflow=hidden;rotatable=0;points=[[0,0.5],[1,0.5]];portConstraint=eastwest;" vertex="1" parent="pxwjKuDdbxGbTX345M8p-49">
          <mxGeometry y="26" width="270" height="24" as="geometry" />
        </mxCell>
        <mxCell id="pxwjKuDdbxGbTX345M8p-51" value="" style="line;strokeWidth=1;fillColor=none;align=left;verticalAlign=middle;spacingTop=-1;spacingLeft=3;spacingRight=3;rotatable=0;labelPosition=right;points=[];portConstraint=eastwest;" vertex="1" parent="pxwjKuDdbxGbTX345M8p-49">
          <mxGeometry y="50" width="270" height="8" as="geometry" />
        </mxCell>
        <mxCell id="pxwjKuDdbxGbTX345M8p-52" value="+Asteroid(position : Vector2)&#xa;+LoadContent(content : ContentManager) : void&#xa;+Update(gameTime : GameTime) : void&#xa;+Draw(spriteBatch : SpriteBatch) : void&#xa;+OnColliSion(obj : GameObject) : void&#xa;-ScreenBound() : void&#xa;" style="text;strokeColor=none;fillColor=none;align=left;verticalAlign=top;spacingLeft=4;spacingRight=4;overflow=hidden;rotatable=0;points=[[0,0.5],[1,0.5]];portConstraint=eastwest;" vertex="1" parent="pxwjKuDdbxGbTX345M8p-49">
          <mxGeometry y="58" width="270" height="120" as="geometry" />
        </mxCell>
        <mxCell id="pxwjKuDdbxGbTX345M8p-53" value="smallAsteroid" style="swimlane;fontStyle=0;align=center;verticalAlign=top;childLayout=stackLayout;horizontal=1;startSize=26;horizontalStack=0;resizeParent=1;resizeParentMax=0;resizeLast=0;collapsible=1;marginBottom=0;" vertex="1" parent="WIyWlLk6GJQsqaUBKTNV-1">
          <mxGeometry x="290" y="950" width="360" height="160" as="geometry" />
        </mxCell>
        <mxCell id="pxwjKuDdbxGbTX345M8p-54" value="-asteroidDestruction : SoundEffect" style="text;strokeColor=none;fillColor=none;align=left;verticalAlign=top;spacingLeft=4;spacingRight=4;overflow=hidden;rotatable=0;points=[[0,0.5],[1,0.5]];portConstraint=eastwest;" vertex="1" parent="pxwjKuDdbxGbTX345M8p-53">
          <mxGeometry y="26" width="360" height="26" as="geometry" />
        </mxCell>
        <mxCell id="pxwjKuDdbxGbTX345M8p-55" value="" style="line;strokeWidth=1;fillColor=none;align=left;verticalAlign=middle;spacingTop=-1;spacingLeft=3;spacingRight=3;rotatable=0;labelPosition=right;points=[];portConstraint=eastwest;" vertex="1" parent="pxwjKuDdbxGbTX345M8p-53">
          <mxGeometry y="52" width="360" height="8" as="geometry" />
        </mxCell>
        <mxCell id="pxwjKuDdbxGbTX345M8p-56" value="+SmallAsteroid(position : Vector2, scale : float, sprite :Texture2D)&#xa;+LoadContent(content : ContentManager) : void&#xa;+Update(gameTime : GameTime) : void&#xa;+Draw(spriteBatch : SpriteBatch) : void&#xa;+OnColliSion(obj : GameObject) : void&#xa;-ScreenBound() : void&#xa;" style="text;strokeColor=none;fillColor=none;align=left;verticalAlign=top;spacingLeft=4;spacingRight=4;overflow=hidden;rotatable=0;points=[[0,0.5],[1,0.5]];portConstraint=eastwest;" vertex="1" parent="pxwjKuDdbxGbTX345M8p-53">
          <mxGeometry y="60" width="360" height="100" as="geometry" />
        </mxCell>
        <mxCell id="pxwjKuDdbxGbTX345M8p-59" value="Laser" style="swimlane;fontStyle=0;align=center;verticalAlign=top;childLayout=stackLayout;horizontal=1;startSize=26;horizontalStack=0;resizeParent=1;resizeParentMax=0;resizeLast=0;collapsible=1;marginBottom=0;" vertex="1" parent="WIyWlLk6GJQsqaUBKTNV-1">
          <mxGeometry x="-330" y="760" width="330" height="134" as="geometry" />
        </mxCell>
        <mxCell id="pxwjKuDdbxGbTX345M8p-61" value="" style="line;strokeWidth=1;fillColor=none;align=left;verticalAlign=middle;spacingTop=-1;spacingLeft=3;spacingRight=3;rotatable=0;labelPosition=right;points=[];portConstraint=eastwest;" vertex="1" parent="pxwjKuDdbxGbTX345M8p-59">
          <mxGeometry y="26" width="330" height="8" as="geometry" />
        </mxCell>
        <mxCell id="pxwjKuDdbxGbTX345M8p-62" value="+Laser(position : Vector2, shootingPoint : Vector2, &#xa;rotation : float, speed : float)&#xa;&#xa;+Update(gameTime : GameTime) : void&#xa;+LoadContent(content : ContentManager) : void&#xa;+Draw(spriteBatch : SpriteBatch) : void" style="text;strokeColor=none;fillColor=none;align=left;verticalAlign=top;spacingLeft=4;spacingRight=4;overflow=hidden;rotatable=0;points=[[0,0.5],[1,0.5]];portConstraint=eastwest;" vertex="1" parent="pxwjKuDdbxGbTX345M8p-59">
          <mxGeometry y="34" width="330" height="100" as="geometry" />
        </mxCell>
        <mxCell id="pxwjKuDdbxGbTX345M8p-63" value="Spawner" style="swimlane;fontStyle=0;align=center;verticalAlign=top;childLayout=stackLayout;horizontal=1;startSize=26;horizontalStack=0;resizeParent=1;resizeParentMax=0;resizeLast=0;collapsible=1;marginBottom=0;" vertex="1" parent="WIyWlLk6GJQsqaUBKTNV-1">
          <mxGeometry x="-460" y="930" width="290" height="290" as="geometry" />
        </mxCell>
        <mxCell id="pxwjKuDdbxGbTX345M8p-64" value="-totalTimeElapsed : float&#xa;-timeSinceLastAsteroid : float&#xa;-timeSinceLastPower : float&#xa;&#xa;-asteroidTimer : float&#xa;-powerTimer : float&#xa;-changeAsteroidDifficultyTimer : int&#xa;-changePowerDifficultyTimer : int&#xa;&#xa;- scoreThreshold : int &#xa;- scoreThresholdMultiplier : int &#xa;- waveNumber : int" style="text;strokeColor=none;fillColor=none;align=left;verticalAlign=top;spacingLeft=4;spacingRight=4;overflow=hidden;rotatable=0;points=[[0,0.5],[1,0.5]];portConstraint=eastwest;" vertex="1" parent="pxwjKuDdbxGbTX345M8p-63">
          <mxGeometry y="26" width="290" height="184" as="geometry" />
        </mxCell>
        <mxCell id="pxwjKuDdbxGbTX345M8p-65" value="" style="line;strokeWidth=1;fillColor=none;align=left;verticalAlign=middle;spacingTop=-1;spacingLeft=3;spacingRight=3;rotatable=0;labelPosition=right;points=[];portConstraint=eastwest;" vertex="1" parent="pxwjKuDdbxGbTX345M8p-63">
          <mxGeometry y="210" width="290" height="8" as="geometry" />
        </mxCell>
        <mxCell id="pxwjKuDdbxGbTX345M8p-66" value="+Update(gameTime : GameTime) : void&#xa;+SpawnEnemyShip(gameTime : GameTime) : void&#xa;+SpawnAsteroid(gameTime : GameTime) : void&#xa;+SpawnPower(gameTime : GameTime) : void&#xa;" style="text;strokeColor=none;fillColor=none;align=left;verticalAlign=top;spacingLeft=4;spacingRight=4;overflow=hidden;rotatable=0;points=[[0,0.5],[1,0.5]];portConstraint=eastwest;" vertex="1" parent="pxwjKuDdbxGbTX345M8p-63">
          <mxGeometry y="218" width="290" height="72" as="geometry" />
        </mxCell>
        <mxCell id="pxwjKuDdbxGbTX345M8p-71" value="HealthPower" style="swimlane;fontStyle=0;align=center;verticalAlign=top;childLayout=stackLayout;horizontal=1;startSize=26;horizontalStack=0;resizeParent=1;resizeParentMax=0;resizeLast=0;collapsible=1;marginBottom=0;" vertex="1" parent="WIyWlLk6GJQsqaUBKTNV-1">
          <mxGeometry x="-660" y="250" width="270" height="104" as="geometry" />
        </mxCell>
        <mxCell id="pxwjKuDdbxGbTX345M8p-73" value="" style="line;strokeWidth=1;fillColor=none;align=left;verticalAlign=middle;spacingTop=-1;spacingLeft=3;spacingRight=3;rotatable=0;labelPosition=right;points=[];portConstraint=eastwest;" vertex="1" parent="pxwjKuDdbxGbTX345M8p-71">
          <mxGeometry y="26" width="270" height="8" as="geometry" />
        </mxCell>
        <mxCell id="pxwjKuDdbxGbTX345M8p-74" value="+HealthPower(position : Vector2)&#xa;+LoadContent(content : ContentManager) : void&#xa;+Draw(spriteBatch : SpriteBatch) : void&#xa;+Update(gameTime : GameTime) : void&#xa;" style="text;strokeColor=none;fillColor=none;align=left;verticalAlign=top;spacingLeft=4;spacingRight=4;overflow=hidden;rotatable=0;points=[[0,0.5],[1,0.5]];portConstraint=eastwest;" vertex="1" parent="pxwjKuDdbxGbTX345M8p-71">
          <mxGeometry y="34" width="270" height="70" as="geometry" />
        </mxCell>
        <mxCell id="pxwjKuDdbxGbTX345M8p-75" value="RateOfFirePower" style="swimlane;fontStyle=0;align=center;verticalAlign=top;childLayout=stackLayout;horizontal=1;startSize=26;horizontalStack=0;resizeParent=1;resizeParentMax=0;resizeLast=0;collapsible=1;marginBottom=0;" vertex="1" parent="WIyWlLk6GJQsqaUBKTNV-1">
          <mxGeometry x="-660" y="364" width="270" height="104" as="geometry" />
        </mxCell>
        <mxCell id="pxwjKuDdbxGbTX345M8p-77" value="" style="line;strokeWidth=1;fillColor=none;align=left;verticalAlign=middle;spacingTop=-1;spacingLeft=3;spacingRight=3;rotatable=0;labelPosition=right;points=[];portConstraint=eastwest;" vertex="1" parent="pxwjKuDdbxGbTX345M8p-75">
          <mxGeometry y="26" width="270" height="8" as="geometry" />
        </mxCell>
        <mxCell id="pxwjKuDdbxGbTX345M8p-78" value="+RateOfFirePower(position : Vector2)&#xa;+LoadContent(content : ContentManager) : void&#xa;+Draw(spriteBatch : SpriteBatch) : void&#xa;+Update(gameTime : GameTime) : void&#xa;" style="text;strokeColor=none;fillColor=none;align=left;verticalAlign=top;spacingLeft=4;spacingRight=4;overflow=hidden;rotatable=0;points=[[0,0.5],[1,0.5]];portConstraint=eastwest;" vertex="1" parent="pxwjKuDdbxGbTX345M8p-75">
          <mxGeometry y="34" width="270" height="70" as="geometry" />
        </mxCell>
        <mxCell id="pxwjKuDdbxGbTX345M8p-79" value="SpeedPower" style="swimlane;fontStyle=0;align=center;verticalAlign=top;childLayout=stackLayout;horizontal=1;startSize=26;horizontalStack=0;resizeParent=1;resizeParentMax=0;resizeLast=0;collapsible=1;marginBottom=0;" vertex="1" parent="WIyWlLk6GJQsqaUBKTNV-1">
          <mxGeometry x="-660" y="138" width="270" height="104" as="geometry" />
        </mxCell>
        <mxCell id="pxwjKuDdbxGbTX345M8p-81" value="" style="line;strokeWidth=1;fillColor=none;align=left;verticalAlign=middle;spacingTop=-1;spacingLeft=3;spacingRight=3;rotatable=0;labelPosition=right;points=[];portConstraint=eastwest;" vertex="1" parent="pxwjKuDdbxGbTX345M8p-79">
          <mxGeometry y="26" width="270" height="8" as="geometry" />
        </mxCell>
        <mxCell id="pxwjKuDdbxGbTX345M8p-82" value="+SpeedPower(position : Vector2)&#xa;+LoadContent(content : ContentManager) : void&#xa;+Draw(spriteBatch : SpriteBatch) : void&#xa;+Update(gameTime : GameTime) : void&#xa;" style="text;strokeColor=none;fillColor=none;align=left;verticalAlign=top;spacingLeft=4;spacingRight=4;overflow=hidden;rotatable=0;points=[[0,0.5],[1,0.5]];portConstraint=eastwest;" vertex="1" parent="pxwjKuDdbxGbTX345M8p-79">
          <mxGeometry y="34" width="270" height="70" as="geometry" />
        </mxCell>
        <mxCell id="pxwjKuDdbxGbTX345M8p-87" value="Enemy" style="swimlane;fontStyle=0;align=center;verticalAlign=top;childLayout=stackLayout;horizontal=1;startSize=26;horizontalStack=0;resizeParent=1;resizeParentMax=0;resizeLast=0;collapsible=1;marginBottom=0;" vertex="1" parent="WIyWlLk6GJQsqaUBKTNV-1">
          <mxGeometry x="-670" y="610" width="280" height="300" as="geometry" />
        </mxCell>
        <mxCell id="pxwjKuDdbxGbTX345M8p-88" value="- movingRight : bool &#xa;- timeSinceLastShot : float&#xa;- shootingPoint : Vector2&#xa;- healthBarOrigin : Vector2&#xa;- healthRectangle : Rectangle&#xa;- borderRectangle : Rectangle&#xa;- healthBar : Texture2D&#xa;- healthBarBorder : Texture2D&#xa;-enemyDestruction : SoundEffect&#xa;-enemyLaserSound : SoundEffect&#xa;" style="text;strokeColor=none;fillColor=none;align=left;verticalAlign=top;spacingLeft=4;spacingRight=4;overflow=hidden;rotatable=0;points=[[0,0.5],[1,0.5]];portConstraint=eastwest;" vertex="1" parent="pxwjKuDdbxGbTX345M8p-87">
          <mxGeometry y="26" width="280" height="154" as="geometry" />
        </mxCell>
        <mxCell id="pxwjKuDdbxGbTX345M8p-89" value="" style="line;strokeWidth=1;fillColor=none;align=left;verticalAlign=middle;spacingTop=-1;spacingLeft=3;spacingRight=3;rotatable=0;labelPosition=right;points=[];portConstraint=eastwest;" vertex="1" parent="pxwjKuDdbxGbTX345M8p-87">
          <mxGeometry y="180" width="280" height="8" as="geometry" />
        </mxCell>
        <mxCell id="pxwjKuDdbxGbTX345M8p-90" value="+Enemy()&#xa;+LoadContent(content : ContentManager) : void&#xa;+Draw(spriteBatch : SpriteBatch) : void&#xa;+Update(gameTime : GameTime) : void&#xa;+OnCollision(obj : GameObject) : void&#xa;+Attack(gameTime : GameTime) : void&#xa;+ShipMovement() : void&#xa;" style="text;strokeColor=none;fillColor=none;align=left;verticalAlign=top;spacingLeft=4;spacingRight=4;overflow=hidden;rotatable=0;points=[[0,0.5],[1,0.5]];portConstraint=eastwest;" vertex="1" parent="pxwjKuDdbxGbTX345M8p-87">
          <mxGeometry y="188" width="280" height="112" as="geometry" />
        </mxCell>
        <mxCell id="pxwjKuDdbxGbTX345M8p-91" value="EnemyAttack" style="swimlane;fontStyle=0;align=center;verticalAlign=top;childLayout=stackLayout;horizontal=1;startSize=26;horizontalStack=0;resizeParent=1;resizeParentMax=0;resizeLast=0;collapsible=1;marginBottom=0;" vertex="1" parent="WIyWlLk6GJQsqaUBKTNV-1">
          <mxGeometry x="-820" y="496" width="430" height="104" as="geometry" />
        </mxCell>
        <mxCell id="pxwjKuDdbxGbTX345M8p-93" value="" style="line;strokeWidth=1;fillColor=none;align=left;verticalAlign=middle;spacingTop=-1;spacingLeft=3;spacingRight=3;rotatable=0;labelPosition=right;points=[];portConstraint=eastwest;" vertex="1" parent="pxwjKuDdbxGbTX345M8p-91">
          <mxGeometry y="26" width="430" height="8" as="geometry" />
        </mxCell>
        <mxCell id="pxwjKuDdbxGbTX345M8p-94" value="+EnemyAttack(position : Vector2, shootingPoint : Vector2, rotation : float)&#xa;+LoadContent(content : ContentManager) : void&#xa;+Draw(spriteBatch : SpriteBatch) : void&#xa;+Update(gameTime : GameTime) : void&#xa;" style="text;strokeColor=none;fillColor=none;align=left;verticalAlign=top;spacingLeft=4;spacingRight=4;overflow=hidden;rotatable=0;points=[[0,0.5],[1,0.5]];portConstraint=eastwest;" vertex="1" parent="pxwjKuDdbxGbTX345M8p-91">
          <mxGeometry y="34" width="430" height="70" as="geometry" />
        </mxCell>
        <mxCell id="pxwjKuDdbxGbTX345M8p-95" value="ScoreManager" style="swimlane;fontStyle=4;align=center;verticalAlign=top;childLayout=stackLayout;horizontal=1;startSize=26;horizontalStack=0;resizeParent=1;resizeParentMax=0;resizeLast=0;collapsible=1;marginBottom=0;" vertex="1" parent="WIyWlLk6GJQsqaUBKTNV-1">
          <mxGeometry x="-280" y="10" width="240" height="180" as="geometry" />
        </mxCell>
        <mxCell id="pxwjKuDdbxGbTX345M8p-96" value="-listOfScores : List&lt;int&gt;&#xa;+filePath : string &#xa;+fileName : string&#xa;" style="text;strokeColor=none;fillColor=none;align=left;verticalAlign=top;spacingLeft=4;spacingRight=4;overflow=hidden;rotatable=0;points=[[0,0.5],[1,0.5]];portConstraint=eastwest;" vertex="1" parent="pxwjKuDdbxGbTX345M8p-95">
          <mxGeometry y="26" width="240" height="54" as="geometry" />
        </mxCell>
        <mxCell id="pxwjKuDdbxGbTX345M8p-97" value="" style="line;strokeWidth=1;fillColor=none;align=left;verticalAlign=middle;spacingTop=-1;spacingLeft=3;spacingRight=3;rotatable=0;labelPosition=right;points=[];portConstraint=eastwest;" vertex="1" parent="pxwjKuDdbxGbTX345M8p-95">
          <mxGeometry y="80" width="240" height="8" as="geometry" />
        </mxCell>
        <mxCell id="pxwjKuDdbxGbTX345M8p-101" value="+ListOfScores : List&lt;int&gt;" style="text;strokeColor=none;fillColor=none;align=left;verticalAlign=top;spacingLeft=4;spacingRight=4;overflow=hidden;rotatable=0;points=[[0,0.5],[1,0.5]];portConstraint=eastwest;fontStyle=0" vertex="1" parent="pxwjKuDdbxGbTX345M8p-95">
          <mxGeometry y="88" width="240" height="22" as="geometry" />
        </mxCell>
        <mxCell id="pxwjKuDdbxGbTX345M8p-104" value="-UpdateScore(point : int) : void&#xa;-SaveScore(point : int) : void&#xa;+SaveToTxt() : void&#xa;+ReadTxt() : int" style="text;strokeColor=none;fillColor=none;align=left;verticalAlign=top;spacingLeft=4;spacingRight=4;overflow=hidden;rotatable=0;points=[[0,0.5],[1,0.5]];portConstraint=eastwest;fontStyle=4" vertex="1" parent="pxwjKuDdbxGbTX345M8p-95">
          <mxGeometry y="110" width="240" height="70" as="geometry" />
        </mxCell>
        <mxCell id="pxwjKuDdbxGbTX345M8p-134" value="" style="endArrow=diamondThin;endFill=1;endSize=24;html=1;rounded=0;entryX=0;entryY=0.5;entryDx=0;entryDy=0;exitX=1.002;exitY=0.36;exitDx=0;exitDy=0;exitPerimeter=0;" edge="1" parent="WIyWlLk6GJQsqaUBKTNV-1" source="zkfFHV4jXpPFQw0GAbJ--3" target="pxwjKuDdbxGbTX345M8p-58">
          <mxGeometry width="160" relative="1" as="geometry">
            <mxPoint x="410" y="250" as="sourcePoint" />
            <mxPoint x="430" y="420" as="targetPoint" />
          </mxGeometry>
        </mxCell>
        <mxCell id="pxwjKuDdbxGbTX345M8p-135" value="0..*" style="text;html=1;align=center;verticalAlign=middle;resizable=0;points=[];autosize=1;strokeColor=none;fillColor=none;" vertex="1" parent="WIyWlLk6GJQsqaUBKTNV-1">
          <mxGeometry x="384" y="180" width="30" height="20" as="geometry" />
        </mxCell>
        <mxCell id="pxwjKuDdbxGbTX345M8p-136" value="1" style="text;html=1;align=center;verticalAlign=middle;resizable=0;points=[];autosize=1;strokeColor=none;fillColor=none;" vertex="1" parent="WIyWlLk6GJQsqaUBKTNV-1">
          <mxGeometry x="480" y="170" width="20" height="20" as="geometry" />
        </mxCell>
        <mxCell id="pxwjKuDdbxGbTX345M8p-137" value="" style="endArrow=open;endFill=1;endSize=12;html=1;rounded=0;exitX=0.595;exitY=0.003;exitDx=0;exitDy=0;exitPerimeter=0;" edge="1" parent="WIyWlLk6GJQsqaUBKTNV-1" source="pxwjKuDdbxGbTX345M8p-45">
          <mxGeometry width="160" relative="1" as="geometry">
            <mxPoint x="310" y="790" as="sourcePoint" />
            <mxPoint x="170" y="680" as="targetPoint" />
          </mxGeometry>
        </mxCell>
        <mxCell id="pxwjKuDdbxGbTX345M8p-138" value="1" style="text;html=1;align=center;verticalAlign=middle;resizable=0;points=[];autosize=1;strokeColor=none;fillColor=none;" vertex="1" parent="WIyWlLk6GJQsqaUBKTNV-1">
          <mxGeometry x="170" y="740" width="20" height="20" as="geometry" />
        </mxCell>
        <mxCell id="pxwjKuDdbxGbTX345M8p-139" value="" style="endArrow=open;endFill=1;endSize=12;html=1;rounded=0;exitX=0.148;exitY=0;exitDx=0;exitDy=0;exitPerimeter=0;" edge="1" parent="WIyWlLk6GJQsqaUBKTNV-1" source="pxwjKuDdbxGbTX345M8p-49">
          <mxGeometry width="160" relative="1" as="geometry">
            <mxPoint x="40" y="650" as="sourcePoint" />
            <mxPoint x="330" y="680" as="targetPoint" />
          </mxGeometry>
        </mxCell>
        <mxCell id="pxwjKuDdbxGbTX345M8p-140" value="0...*" style="text;html=1;align=center;verticalAlign=middle;resizable=0;points=[];autosize=1;strokeColor=none;fillColor=none;" vertex="1" parent="WIyWlLk6GJQsqaUBKTNV-1">
          <mxGeometry x="320" y="740" width="40" height="20" as="geometry" />
        </mxCell>
        <mxCell id="pxwjKuDdbxGbTX345M8p-141" value="" style="endArrow=open;endFill=1;endSize=12;html=1;rounded=0;entryX=1;entryY=0.5;entryDx=0;entryDy=0;" edge="1" parent="WIyWlLk6GJQsqaUBKTNV-1" target="zkfFHV4jXpPFQw0GAbJ--5">
          <mxGeometry width="160" relative="1" as="geometry">
            <mxPoint x="604" y="950" as="sourcePoint" />
            <mxPoint x="200" y="850" as="targetPoint" />
            <Array as="points">
              <mxPoint x="604" y="625" />
            </Array>
          </mxGeometry>
        </mxCell>
        <mxCell id="pxwjKuDdbxGbTX345M8p-142" value="0...*" style="text;html=1;align=center;verticalAlign=middle;resizable=0;points=[];autosize=1;strokeColor=none;fillColor=none;" vertex="1" parent="WIyWlLk6GJQsqaUBKTNV-1">
          <mxGeometry x="600" y="930" width="40" height="20" as="geometry" />
        </mxCell>
        <mxCell id="pxwjKuDdbxGbTX345M8p-143" value="" style="endArrow=open;endFill=1;endSize=12;html=1;rounded=0;exitX=0.75;exitY=0;exitDx=0;exitDy=0;" edge="1" parent="WIyWlLk6GJQsqaUBKTNV-1" source="pxwjKuDdbxGbTX345M8p-59">
          <mxGeometry width="160" relative="1" as="geometry">
            <mxPoint x="40" y="730" as="sourcePoint" />
            <mxPoint x="80" y="680" as="targetPoint" />
            <Array as="points">
              <mxPoint x="-82" y="720" />
              <mxPoint x="80" y="720" />
            </Array>
          </mxGeometry>
        </mxCell>
        <mxCell id="pxwjKuDdbxGbTX345M8p-144" value="0...*" style="text;html=1;align=center;verticalAlign=middle;resizable=0;points=[];autosize=1;strokeColor=none;fillColor=none;" vertex="1" parent="WIyWlLk6GJQsqaUBKTNV-1">
          <mxGeometry x="-80" y="740" width="40" height="20" as="geometry" />
        </mxCell>
        <mxCell id="pxwjKuDdbxGbTX345M8p-145" value="" style="endArrow=open;endFill=1;endSize=12;html=1;rounded=0;exitX=0;exitY=0;exitDx=0;exitDy=0;entryX=0.003;entryY=0.967;entryDx=0;entryDy=0;entryPerimeter=0;" edge="1" parent="WIyWlLk6GJQsqaUBKTNV-1" source="pxwjKuDdbxGbTX345M8p-63" target="zkfFHV4jXpPFQw0GAbJ--5">
          <mxGeometry width="160" relative="1" as="geometry">
            <mxPoint x="40" y="690" as="sourcePoint" />
            <mxPoint x="200" y="690" as="targetPoint" />
            <Array as="points">
              <mxPoint x="-360" y="930" />
              <mxPoint x="-360" y="690" />
              <mxPoint x="-360" y="667" />
              <mxPoint x="-250" y="667" />
              <mxPoint x="-160" y="667" />
            </Array>
          </mxGeometry>
        </mxCell>
        <mxCell id="pxwjKuDdbxGbTX345M8p-146" value="1" style="text;html=1;align=center;verticalAlign=middle;resizable=0;points=[];autosize=1;strokeColor=none;fillColor=none;" vertex="1" parent="WIyWlLk6GJQsqaUBKTNV-1">
          <mxGeometry x="-360" y="910" width="20" height="20" as="geometry" />
        </mxCell>
        <mxCell id="pxwjKuDdbxGbTX345M8p-147" value="" style="endArrow=open;endFill=1;endSize=12;html=1;rounded=0;entryX=0.005;entryY=0.433;entryDx=0;entryDy=0;entryPerimeter=0;exitX=0.996;exitY=0.037;exitDx=0;exitDy=0;exitPerimeter=0;" edge="1" parent="WIyWlLk6GJQsqaUBKTNV-1" source="pxwjKuDdbxGbTX345M8p-87" target="zkfFHV4jXpPFQw0GAbJ--5">
          <mxGeometry width="160" relative="1" as="geometry">
            <mxPoint x="-640" y="790" as="sourcePoint" />
            <mxPoint x="-480" y="790" as="targetPoint" />
          </mxGeometry>
        </mxCell>
        <mxCell id="pxwjKuDdbxGbTX345M8p-148" value="0...*" style="text;html=1;align=center;verticalAlign=middle;resizable=0;points=[];autosize=1;strokeColor=none;fillColor=none;" vertex="1" parent="WIyWlLk6GJQsqaUBKTNV-1">
          <mxGeometry x="-390" y="600" width="40" height="20" as="geometry" />
        </mxCell>
        <mxCell id="pxwjKuDdbxGbTX345M8p-149" value="" style="endArrow=open;endFill=1;endSize=12;html=1;rounded=0;exitX=1.007;exitY=0.156;exitDx=0;exitDy=0;exitPerimeter=0;" edge="1" parent="WIyWlLk6GJQsqaUBKTNV-1" source="pxwjKuDdbxGbTX345M8p-91">
          <mxGeometry width="160" relative="1" as="geometry">
            <mxPoint x="-330" y="610" as="sourcePoint" />
            <mxPoint x="10" y="510" as="targetPoint" />
          </mxGeometry>
        </mxCell>
        <mxCell id="pxwjKuDdbxGbTX345M8p-150" value="0...*" style="text;html=1;align=center;verticalAlign=middle;resizable=0;points=[];autosize=1;strokeColor=none;fillColor=none;" vertex="1" parent="WIyWlLk6GJQsqaUBKTNV-1">
          <mxGeometry x="-390" y="492" width="40" height="20" as="geometry" />
        </mxCell>
        <mxCell id="pxwjKuDdbxGbTX345M8p-151" value="" style="endArrow=open;endFill=1;endSize=12;html=1;rounded=0;entryX=-0.005;entryY=0.78;entryDx=0;entryDy=0;entryPerimeter=0;exitX=1;exitY=0.25;exitDx=0;exitDy=0;" edge="1" parent="WIyWlLk6GJQsqaUBKTNV-1" source="pxwjKuDdbxGbTX345M8p-75" target="zkfFHV4jXpPFQw0GAbJ--3">
          <mxGeometry width="160" relative="1" as="geometry">
            <mxPoint x="-370" y="470" as="sourcePoint" />
            <mxPoint x="-210" y="470" as="targetPoint" />
          </mxGeometry>
        </mxCell>
        <mxCell id="pxwjKuDdbxGbTX345M8p-152" value="0...*" style="text;html=1;align=center;verticalAlign=middle;resizable=0;points=[];autosize=1;strokeColor=none;fillColor=none;" vertex="1" parent="WIyWlLk6GJQsqaUBKTNV-1">
          <mxGeometry x="-390" y="370" width="40" height="20" as="geometry" />
        </mxCell>
        <mxCell id="pxwjKuDdbxGbTX345M8p-153" value="" style="endArrow=open;endFill=1;endSize=12;html=1;rounded=0;entryX=0;entryY=0.5;entryDx=0;entryDy=0;exitX=0.996;exitY=0.125;exitDx=0;exitDy=0;exitPerimeter=0;" edge="1" parent="WIyWlLk6GJQsqaUBKTNV-1" source="pxwjKuDdbxGbTX345M8p-71" target="zkfFHV4jXpPFQw0GAbJ--3">
          <mxGeometry width="160" relative="1" as="geometry">
            <mxPoint x="-380" y="400" as="sourcePoint" />
            <mxPoint x="18.09999999999991" y="400.1199999999999" as="targetPoint" />
          </mxGeometry>
        </mxCell>
        <mxCell id="pxwjKuDdbxGbTX345M8p-154" value="" style="endArrow=open;endFill=1;endSize=12;html=1;rounded=0;entryX=-0.005;entryY=0.355;entryDx=0;entryDy=0;exitX=1.007;exitY=0.371;exitDx=0;exitDy=0;exitPerimeter=0;entryPerimeter=0;" edge="1" parent="WIyWlLk6GJQsqaUBKTNV-1" source="pxwjKuDdbxGbTX345M8p-82" target="zkfFHV4jXpPFQw0GAbJ--3">
          <mxGeometry width="160" relative="1" as="geometry">
            <mxPoint x="-381.0799999999999" y="273" as="sourcePoint" />
            <mxPoint x="20" y="273" as="targetPoint" />
          </mxGeometry>
        </mxCell>
        <mxCell id="pxwjKuDdbxGbTX345M8p-155" value="0...*" style="text;html=1;align=center;verticalAlign=middle;resizable=0;points=[];autosize=1;strokeColor=none;fillColor=none;" vertex="1" parent="WIyWlLk6GJQsqaUBKTNV-1">
          <mxGeometry x="-390" y="242" width="40" height="20" as="geometry" />
        </mxCell>
        <mxCell id="pxwjKuDdbxGbTX345M8p-156" value="0...*" style="text;html=1;align=center;verticalAlign=middle;resizable=0;points=[];autosize=1;strokeColor=none;fillColor=none;" vertex="1" parent="WIyWlLk6GJQsqaUBKTNV-1">
          <mxGeometry x="-390" y="180" width="40" height="20" as="geometry" />
        </mxCell>
      </root>
    </mxGraphModel>
  </diagram>
</mxfile>
